<?xml version="1.0" standalone="no"?>
<!DOCTYPE svg PUBLIC "-//W3C//DTD SVG 20010904//EN"
 "http://www.w3.org/TR/2001/REC-SVG-20010904/DTD/svg10.dtd">
<svg version="1.0" xmlns="http://www.w3.org/2000/svg"
 width="256.000000pt" height="256.000000pt" viewBox="0 0 256.000000 256.000000"
 preserveAspectRatio="xMidYMid meet">
<metadata>
Created by potrace 1.11, written by Peter Selinger 2001-2013
</metadata>
<g transform="translate(0.000000,256.000000) scale(0.100000,-0.100000)"
fill="#000000" stroke="none">
<path d="M1120 2545 c-183 -39 -321 -114 -450 -246 -203 -207 -286 -503 -219
-786 27 -112 60 -180 233 -478 70 -121 138 -238 151 -260 12 -22 109 -191 215
-375 107 -184 200 -347 207 -362 8 -16 18 -28 21 -28 4 0 51 75 104 167 53 93
198 346 323 563 125 217 253 440 285 495 131 222 170 429 124 650 -66 318
-312 569 -639 652 -75 19 -281 24 -355 8z m246 -531 c75 -18 161 -90 202 -169
21 -42 26 -64 26 -135 1 -74 -3 -93 -27 -142 -30 -62 -83 -115 -149 -150 -33
-17 -63 -23 -125 -25 -99 -2 -159 18 -228 79 -100 88 -131 241 -75 363 68 149
214 218 376 179z"/>
</g>
</svg>
